# xmcd CD database file
#
# Track frame offsets:
#	150
#	16352
#	30062
#	42645
#	53665
#	63400
#	78960
#	91390
#	108192
#	118270
#	131537
#	150867
#	166767
#
# Disc length: 2403 seconds
#
# Revision: 0
# Processed by: cddbd v1.5.1PL0 Copyright (c) Steve Scherf et al.
# Submitted via: CDex 1.51
#
DISCID=9109610d
DTITLE=Michael Gurley and John Gilmore - Euphoria
DYEAR=1999
DGENRE=Jazz
TTITLE0=Last Train Out Of My Mind
TTITLE1=Spoken For
TTITLE2=Third Person
TTITLE3=Euphoria
TTITLE4=I Forget How To Breathe
TTITLE5=Hungover You
TTITLE6=I Jumped Right Out Of My Skin
TTITLE7=My Baby Fell For Ol' St. Nick
TTITLE8=Love 45
TTITLE9=Makenna
TTITLE10=My Funny Valentine
TTITLE11=Route 66/French Club Swing
TTITLE12=What Am I To Do
EXTD=YEAR: 1999
EXTT0=
EXTT1=
EXTT2=
EXTT3=
EXTT4=
EXTT5=
EXTT6=
EXTT7=
EXTT8=
EXTT9=
EXTT10=
EXTT11=
EXTT12=
PLAYORDER=
